# xmcd
#
# Track frame offsets:
#	183
#	15043
#	27695
#	38970
#	48838
#	60635
#	71535
#	82905
#	94395
#	106605
#	119495
#	128710
#	139330
#	151043
#	162328
#	174635
#	187330
#	199620
#	211925
#	222085
#	233045
#	242833
#	253695
#	264055
#
# Disc length: 3714
#
# Revision: 3
# Processed by: cddbd v1.5.1PL0 Copyright (c) Steve Scherf et al.
# Submitted via: audiograbber 1.83.01
# Normalized: r2:DSETVAR1
#
DISCID=460e8018
DTITLE=Various Artist - I Walk The Line
DYEAR=1900
DGENRE=Country
TTITLE0=The Kingston Trio - Tom Dooley
TTITLE1=Elvis Presley - Don't
TTITLE2=Sonny James - Young Love
TTITLE3=Hank Locklin - Please Help Me I'm Falling
TTITLE4=Tennessee Ernie Ford - Sixteen Tons
TTITLE5=Bill Hayes - Ballad Of Davy Crockett
TTITLE6=Marty Robbins - A White Sports Coat (And A Pink Carnation)
TTITLE7=Freddie Fender - Before The Next Teardrop Falls
TTITLE8=Johnny Cash - I Walk The Line
TTITLE9=Kenny Rogers - Ruby, Don't Take Your Love To Town
TTITLE10=Frankie Laine - Rawhide
TTITLE11=Jim Reeves - He'll Have To Go
TTITLE12=The Everly Brothers - Let It Be Me
TTITLE13=Patsy Cline - Just Out Of Reach
TTITLE14=Jerry Lee Lewis - Crazy Arms
TTITLE15=Johnny Horton - North To Alaska
TTITLE16=Freddy Fender - Wasted Days And Wasted Nights
TTITLE17=Kenny Rogers - Reuben James
TTITLE18=Elvis Presley - Wear My Ring Around Your Neck
TTITLE19=Hank Locklin - Send Me The Pillow You Dream On
TTITLE20=Johnny Cash - Ballad Of A Teenage Queen
TTITLE21=Conway Twitty - Mona Lisa
TTITLE22=Wanda Jackson - It's Only Make Believe
TTITLE23=Johnny Burnette - Ballad Of One Eyed Jack
EXTD=
EXTT0=
EXTT1=
EXTT2=
EXTT3=
EXTT4=
EXTT5=
EXTT6=
EXTT7=
EXTT8=
EXTT9=
EXTT10=
EXTT11=
EXTT12=
EXTT13=
EXTT14=
EXTT15=
EXTT16=
EXTT17=
EXTT18=
EXTT19=
EXTT20=
EXTT21=
EXTT22=
EXTT23=
PLAYORDER=
